<svg width="64" height="64" viewBox="0 0 64 64" xmlns="http://www.w3.org/2000/svg"><title>answers-color</title><g fill="none" fill-rule="evenodd"><path d="M56.283 16.89H28.426c-7.684 0-7.684 4.873-7.684 7.942V39.66c0 3.07 0 7.942 7.684 7.942h8.022c3.216 3.256 7.165 6.227 11.31 8.376l.005-8.376h8.518c7.687 0 7.687-4.87 7.687-7.943V24.83c0-3.07 0-7.943-7.684-7.943zM52.193 42.5l-3.13-1.07-.048-.016-.526-.18v-.005l-3.33-1.164c-.083-1 .626-2.803 1.268-3.892l3.1 1.99c1.743-3.922 4.906-7.127 9.006-8.748l1.587 2.58c-4.133 2.047-7.026 5.988-7.928 10.506z" id="Shape" fill="#4BAE51"/><path d="M0 14.514v11.41c0 2.365 0 6.116 6.01 6.116H7.7l.005 6.446c3.24-1.653 6.33-3.94 8.843-6.446l.504-23.64H6.01C0 8.4 0 12.15 0 14.514z" id="Shape"/><path d="M0 14.114C0 11.75 0 8 6.01 8h18.673c6.008 0 6.008 4.123 6.008 5.78l-6.264-.026c-3.475 0-7.368 1.738-7.368 7.212 0 5.44-.006 10.673-.006 10.673H6.01C0 31.64 0 27.89 0 25.526V14.114z" fill="#D8D8D8"/></g></svg>