<svg width="64" height="64" viewBox="0 0 64 64" xmlns="http://www.w3.org/2000/svg"><title>askan-color</title><g fill="none" fill-rule="evenodd"><path d="M8.266 21.248h27.29c7.53 0 7.53 4.82 7.53 7.855v14.663c0 3.04 0 7.855-7.53 7.855H27.7c-3.15 3.222-7.02 6.16-11.08 8.286l-.005-8.285H8.268c-7.53 0-7.53-4.816-7.53-7.854V29.103c0-3.038 0-7.855 7.528-7.855zm22.21 22.545c0-1.412 1.142-2.558 2.55-2.558 1.41 0 2.55 1.144 2.55 2.558 0 1.412-1.14 2.557-2.55 2.557s-2.55-1.145-2.55-2.557zm5.247-7.71c-.862 1.1-1.088 1.956-1.15 2.358-1.436.44-2.708 1.026-3.773 1.72-.943-4.4 3.59-6.79 3.59-8.575 0-1.018-.73-1.414-1.578-1.414-.96 0-1.58.51-2.314 1.188l-2.652-2.433c1.325-1.583 3.16-2.658 5.306-2.658 3.272 0 5.867 1.414 5.867 4.978-.002 2.264-2.163 3.392-3.297 4.837z" fill="#4BAE51"/><path d="M63.702 24.166v5.84c0 2.338 0 6.047-5.887 6.047h-1.658l-.003 6.375c-3.176-1.635-6.2-3.898-8.664-6.375l-.008-.396h-.485s-.006-5.175-.006-10.555c0-5.414-3.813-7.133-7.218-7.133l-6.137.026c0-1.64 0-5.718 5.886-5.718h18.295c5.887 0 5.887 3.71 5.887 6.047v5.84zM19.293 9.883c0-1.5 0-3.883 3.78-3.883h11.75c3.78 0 3.78 2.62 3.78 3.672l-3.942-.017c-2.186 0-5.528 5.874-5.53 7.27l-.005 1.4h-9.637c-.195 0-.195-2.382-.195-3.884V9.884z" fill="#D8D8D8"/></g></svg>