<svg width="64" height="64" viewBox="0 0 64 64" xmlns="http://www.w3.org/2000/svg"><title>experts-color</title><g transform="translate(0 7)" fill="none" fill-rule="evenodd"><path d="M48.383 35.658c.78-1.343 2.196-3.202 2.196-3.202s.07-3.38.017-3.905c.53-.166 3.932-2.38 3.932-4.19 0-2.095-.086-8.116-.086-8.116s.615-7.523-6.458-7.523c-4.755 0-2.363.088-2.363.088-6.307 0-6.543 7.683-6.543 7.683v7.747c0 2.618 3.865 4.237 3.865 4.237v3.897s2.002 2.06 3.906 6.746c-.304-.75.432-1.567 1.533-3.458zM62.37 38.57l-9.08-4.345s-2.02.956-3.506 4.296c-1.165 2.625-1.403 5.727-1.403 5.727l13.99-.09s1.43-.725 1.44-2.06c.016-2.282-1.44-3.527-1.44-3.527z" id="Shape" fill="#D8D8D8"/><path d="M42.848 41.427L34.31 36.51s-1.955.88-4.21 5.01c-2.04 3.737-2.805 7.876-2.805 7.876H42.85s1.357-.17 1.28-3.58c-.088-3.762-1.282-4.39-1.282-4.39zM32.907 35.794l-3.62-2.313s.077-6.87.015-7.742c.523-.116 3.827-2.114 3.827-3.977 0-2.166-.223-8.875-.223-8.875s-4.92-.09-7.014-2.864c-2.112-2.792-.702-7.873-.702-7.873l-6.07.09c-5.01 0-5.374 6.81-5.374 6.81v12.716c0 2.707 4.01 4.01 4.01 4.01v7.75s1.966 1.7 3.93 4.42c1.963 2.72 4.91 7.158 4.91 7.158s.72-3.062 2.805-5.727c2.158-2.76 3.507-3.58 3.507-3.58z" id="Shape" fill="#4BAE51"/><path d="M13.97 35.794L2.062 43.71S.22 44.422.006 47.483c-.127 1.84 2.145 1.91 2.145 1.91h20.234s-1.2-3.477-3.504-7.16c-2.62-4.18-4.91-6.44-4.91-6.44z" fill="#4BAE51"/><ellipse fill="#4BAE51" cx="30.801" cy="4.295" rx="4.207" ry="4.295"/></g></svg>