<svg width="16" height="16" viewBox="0 0 16 16" xmlns="http://www.w3.org/2000/svg"><title>linkedin</title><g fill="#D8D8D8" fill-rule="evenodd"><path d="M3.37 15.515H.048V4.47H3.37v11.045zm8.834 0v-5.9c0-1.537-.548-2.303-1.634-2.303-.863 0-1.406.436-1.683 1.29v6.913l-3.33-.024c.02.2-.012-11.012-.012-11.012 0-.01 2.65-.008 2.65-.008l.193 2.21h.073c.68-1.104 1.765-1.85 3.25-1.85 1.138 0 2.055.314 2.753 1.105.703.79 1.052 1.852 1.052 3.345v6.235h-3.31z"/><ellipse cx="1.713" cy="1.713" rx="1.712" ry="1.657"/></g></svg>