<svg width="177" height="90" viewBox="0 0 177 90" xmlns="http://www.w3.org/2000/svg"><title>Doctoralia</title><g fill="#000" fill-rule="evenodd"><path d="M56.985 47.693c0 5.742-1.56 6.962-5.18 6.962h-3.678V40.73h3.678c3.617 0 5.178 1.22 5.178 6.963h.002zM44.237 58.138h7.636c6.058 0 8.91-2.935 8.91-10.445s-2.85-10.446-8.91-10.446h-7.636v20.89zm22.477-8.107c0-4.3 1.093-5.605 3.967-5.605 2.85 0 3.92 1.305 3.92 5.606 0 4.3-1.07 5.606-3.92 5.606-2.85 0-3.967-1.305-3.967-5.605zm11.375 0c0-6.057-2.135-8.644-7.41-8.644-5.238 0-7.458 2.585-7.458 8.644 0 6.058 2.22 8.474 7.46 8.474 5.274 0 7.407-2.416 7.407-8.474zm30.207 0c0-4.3 1.092-5.605 3.968-5.605 2.85 0 3.917 1.305 3.917 5.606 0 4.3-1.067 5.606-3.917 5.606-2.85 0-3.968-1.305-3.968-5.605zm11.376 0c0-6.057-2.134-8.644-7.408-8.644-5.24 0-7.46 2.585-7.46 8.644 0 6.058 2.22 8.474 7.46 8.474 5.274 0 7.407-2.416 7.407-8.474zm-27.71 7.587v-2.962c-.93.48-2.098.743-3.3.743-2.903 0-4.516-1.485-4.516-5.45 0-3.97 1.613-5.455 4.515-5.455 1.203 0 2.37.265 3.302.743v-2.96c-.99-.54-2.425-.89-4.06-.89-4.85 0-7.28 2.73-7.28 8.56 0 5.826 2.43 8.557 7.278 8.557 1.638 0 3.073-.35 4.063-.887zm10.446.477v-2.968c-.332.154-1.076.272-1.504.272-1.407 0-2.185-.588-2.185-2.023v-8.55h3.69v-3.072h-3.69V37.25l-3.48.408v16.06c0 3.013 1.557 4.787 4.643 4.787.98.003 1.96-.176 2.525-.408v-.003zm51.01-21.665l-3.48.407v21.3h3.48V36.43zm5.43 3.642c1.047 0 1.903-.853 1.903-1.902 0-1.05-.855-1.904-1.904-1.904-1.05 0-1.904.852-1.904 1.903 0 1.047.854 1.9 1.903 1.9v.002zm-1.74 18.066h3.48V41.754l-3.48.408v15.976zm-30.935-7.783c.272-5.05 3.346-5.23 5.223-5.495.16-.018.314-.025.51-.025v-3.183c-3.004 0-4.737.665-5.846 3.19l-.375-3.48-2.995.392v16.384h3.483v-7.783zm9.215-5.794c1.776-.12 3.304-.145 3.866-.145 2.52 0 3.51.804 3.51 2.825v1.186c-.948-.3-2.168-.52-3.474-.52-3.876 0-5.94 1.978-5.94 5.085 0 3.43 2.004 5.147 5.093 5.147 2.014 0 3.72-.777 4.745-2.075l.393 2.075h2.663v-10.42c0-4.385-1.69-6.332-6.35-6.332-.732 0-2.49.05-4.506.17V44.562zm7.373 8.67c0 1.007-1.578 2.064-3.338 2.064-1.646 0-2.814-.655-2.814-2.49 0-1.595 1.032-2.466 3.32-2.466 1.39 0 2.414.267 2.832.444v2.45zm22.93-8.67c1.777-.12 3.305-.145 3.867-.145 2.516 0 3.507.804 3.507 2.825v1.186c-.95-.3-2.168-.52-3.474-.52-3.873 0-5.93 1.978-5.93 5.085 0 3.43 1.997 5.147 5.084 5.147 2.015 0 3.72-.777 4.745-2.075l.394 2.075h2.66v-10.42c0-4.385-1.69-6.332-6.348-6.332-.734 0-2.49.05-4.505.17V44.562zm7.372 8.67c0 1.007-1.578 2.064-3.335 2.064-1.647 0-2.816-.655-2.816-2.49 0-1.595 1.032-2.466 3.32-2.466 1.39 0 2.416.267 2.832.444v2.45z" id="Shape"/><path d="M13.263 30.285l-.876 10.424L2.22 38.313.295 44.25l7.06 2.98c1.447-1.464 3.067-2.74 4.844-3.83 2.412-1.483 4.515-2.462 8.09-3.69l-.792-9.423h-6.235v-.002zm-2.4 30.587C15.02 52.4 22.957 46.124 32.47 44.252l-1.935-5.954C18.995 39.6 9.177 46.593 3.925 56.41l6.94 4.463h-.002zm7.29-5.824l5.058 5.877 5.044-3.663-4.924-8.14c-2.222 1.368-4.403 4.027-5.177 5.925z"/></g></svg>