<svg width="160" height="28" viewBox="0 0 160 28" xmlns="http://www.w3.org/2000/svg"><title>Doctoralia</title><g fill-rule="evenodd"><path d="M51.643 16.034c0 5.204-1.415 6.31-4.694 6.31h-3.334V9.724h3.333c3.278 0 4.693 1.106 4.693 6.31zM40.09 25.5h6.92c5.49 0 8.074-2.66 8.074-9.466 0-6.806-2.583-9.466-8.074-9.466h-6.92V25.5zM60.46 18.153c0-3.898.99-5.08 3.595-5.08 2.582 0 3.55 1.182 3.55 5.08 0 3.897-.968 5.08-3.55 5.08-2.583 0-3.596-1.183-3.596-5.08zm10.308 0c0-5.49-1.934-7.834-6.713-7.834-4.748 0-6.76 2.342-6.76 7.833 0 5.49 2.012 7.68 6.76 7.68 4.78 0 6.713-2.19 6.713-7.68zM98.144 18.153c0-3.898.99-5.08 3.596-5.08 2.583 0 3.55 1.182 3.55 5.08 0 3.897-.967 5.08-3.55 5.08-2.584 0-3.596-1.183-3.596-5.08zm10.31 0c0-5.49-1.934-7.834-6.714-7.834-4.748 0-6.76 2.342-6.76 7.833 0 5.49 2.012 7.68 6.76 7.68 4.78 0 6.713-2.19 6.713-7.68zM83.342 25.028v-2.684c-.844.434-1.902.673-2.992.673-2.63 0-4.092-1.346-4.092-4.94 0-3.597 1.462-4.943 4.092-4.943 1.09 0 2.148.24 2.992.674v-2.684c-.897-.488-2.197-.805-3.68-.805-4.393 0-6.597 2.474-6.597 7.757 0 5.28 2.204 7.755 6.596 7.755 1.485 0 2.785-.316 3.682-.804zM92.808 25.46v-2.69c-.3.14-.974.247-1.362.247-1.275 0-1.98-.533-1.98-1.833v-7.75h3.342v-2.783h-3.342V6.57l-3.154.37v14.555c0 2.73 1.41 4.338 4.207 4.338.888.002 1.777-.16 2.288-.37zM139.038 5.826l-3.155.37V25.5h3.155V5.826zM143.957 9.128c.95 0 1.725-.773 1.725-1.724 0-.952-.774-1.725-1.725-1.725-.95 0-1.725.772-1.725 1.724 0 .95.774 1.724 1.725 1.724zM142.38 25.5h3.155V10.652l-3.155.37V25.5zM114.346 18.447c.247-4.577 3.032-4.74 4.733-4.98.145-.016.285-.023.462-.023V10.56c-2.722 0-4.292.602-5.297 2.89l-.34-3.154-2.714.356V25.5h3.156v-7.053zM122.697 13.196c1.61-.11 2.994-.132 3.504-.132 2.283 0 3.18.728 3.18 2.56v1.075c-.858-.272-1.964-.473-3.148-.473-3.512 0-5.383 1.794-5.383 4.61 0 3.107 1.816 4.663 4.616 4.663 1.825 0 3.372-.704 4.3-1.88l.356 1.88h2.413v-9.443c0-3.974-1.532-5.738-5.754-5.738-.664 0-2.257.046-4.084.155v2.72zm6.682 7.857c0 .912-1.43 1.87-3.025 1.87-1.492 0-2.55-.594-2.55-2.256 0-1.446.934-2.236 3.007-2.236 1.26 0 2.188.242 2.567.403v2.22zM150.16 13.196c1.61-.11 2.994-.132 3.504-.132 2.28 0 3.178.728 3.178 2.56v1.075c-.86-.272-1.965-.473-3.148-.473-3.51 0-5.375 1.794-5.375 4.61 0 3.107 1.81 4.663 4.608 4.663 1.826 0 3.372-.704 4.3-1.88l.357 1.88h2.41v-9.443c0-3.974-1.53-5.738-5.752-5.738-.665 0-2.257.046-4.083.155v2.72zm6.68 7.857c0 .912-1.43 1.87-3.022 1.87-1.493 0-2.552-.594-2.552-2.256 0-1.446.935-2.236 3.008-2.236 1.26 0 2.19.242 2.567.403v2.22z" id="Shape"/><path d="M12.02.258l-.794 9.447-9.215-2.17-1.743 5.38 6.398 2.7c1.312-1.327 2.78-2.484 4.39-3.472 2.186-1.343 4.092-2.23 7.333-3.342L17.67.26h-5.65zm-2.175 27.72c3.766-7.678 10.96-13.366 19.58-15.063L27.672 7.52C17.215 8.7 8.317 15.037 3.556 23.935l6.29 4.044zM16.45 22.7l4.585 5.326 4.57-3.32-4.462-7.377c-2.014 1.24-3.99 3.65-4.692 5.37z"/></g></svg>