<svg width="16" height="16" viewBox="0 0 16 16" xmlns="http://www.w3.org/2000/svg"><title>Group</title><path d="M4.993 14.347c-1.847 0-3.566-.542-5.013-1.47.256.03.516.046.78.046 1.533 0 2.942-.523 4.062-1.4-1.43-.026-2.64-.97-3.055-2.27.2.038.404.058.615.058.298 0 .587-.04.862-.113C1.748 8.897.62 7.575.62 5.99v-.04c.44.243.946.39 1.482.407C1.225 5.77.647 4.77.647 3.635c0-.6.162-1.16.443-1.644C2.703 3.97 5.112 5.27 7.83 5.41c-.056-.24-.084-.49-.084-.746 0-1.806 1.464-3.27 3.27-3.27.94 0 1.79.397 2.387 1.033.745-.147 1.445-.42 2.077-.794-.245.765-.763 1.406-1.438 1.81.662-.08 1.292-.254 1.878-.514-.438.655-.992 1.23-1.63 1.692.005.14.008.28.008.423 0 4.324-3.29 9.307-9.305 9.307" fill="#D8D8D8" fill-rule="evenodd"/></svg>